<svg width="778" height="477" viewBox="0 0 778 477" fill="none" xmlns="http://www.w3.org/2000/svg">
<g clip-path="url(#clip0)">
<path d="M744.641 265.251C744.641 265.251 468.665 443.68 464.287 443.68C459.908 443.68 385.44 443.68 385.44 443.68L108 294.644V211.362L356.239 62.3119L464.287 55L737.348 196.751L744.641 265.251Z" stroke="black" stroke-opacity="0.22" stroke-miterlimit="10" stroke-dasharray="8 8"/>
<path opacity="0.57" d="M422.764 395.664L682.215 221.877C696.021 213.127 696.891 193.285 683.888 183.374L515.612 55.1431L244.607 336.404L332.481 390.352C358.732 406.267 396.513 411.557 422.764 395.664Z" fill="url(#paint0_linear)"/>
<path d="M136.751 378.254L214.5 338L88.4208 277.231L6.18945 308.257L136.751 378.254Z" fill="url(#paint1_linear)"/>
<g opacity="0.11">
<path opacity="0.7" d="M124.973 259.71L122.877 258.996C123.033 258.416 123.211 257.679 130.438 252.969L131.664 254.844C125.999 258.527 125.13 259.509 124.973 259.71ZM281.005 256.407L278.909 255.157L280.046 253.237L282.143 254.487L281.005 256.407ZM271.237 250.603L263.565 246.05L264.702 244.13L272.374 248.684L271.237 250.603ZM139.203 250.068L138.021 248.17C140.385 246.697 142.95 245.135 145.648 243.505L146.808 245.425C144.109 247.054 141.545 248.617 139.203 250.068ZM255.892 241.474L248.22 236.921L249.357 235.001L257.03 239.555L255.892 241.474ZM154.48 240.827L153.343 238.907C155.863 237.412 158.428 235.894 161.037 234.354L162.175 236.274C159.565 237.814 156.978 239.332 154.48 240.827ZM240.548 232.368L232.876 227.814L234.013 225.895L241.685 230.448L240.548 232.368ZM169.847 231.765L168.732 229.845C171.341 228.328 173.929 226.81 176.449 225.337L177.564 227.279C175.066 228.729 172.479 230.247 169.847 231.765ZM225.203 223.238L217.553 218.685L218.646 216.743L226.341 221.319L225.203 223.238ZM185.303 222.792L184.188 220.85C186.753 219.377 189.162 217.993 191.37 216.721L191.972 216.386L193.02 218.35L192.485 218.64C190.277 219.935 187.868 221.319 185.303 222.792ZM209.569 215.739C206.759 215.225 203.882 215.181 201.071 215.627L200.715 213.417C203.77 212.949 206.915 212.971 209.97 213.551L209.569 215.739Z" fill="black"/>
</g>
<path d="M685.162 209.444C685.028 209.779 684.917 210.092 684.783 210.427C683.244 214.176 680.501 217.949 675.862 221.341L612.878 264.241C606.611 268.437 600.567 271.83 581.453 261.273C568.919 254.13 556.786 265.96 556.786 265.96L508.723 302.543L412.084 376.112C412.084 376.112 409.296 378.634 404.3 381.781C394.018 388.276 374.414 397.428 350.862 392.45C348.23 391.937 345.576 391.2 342.855 390.285C328.603 385.441 309.847 375.531 291.803 364.907C260.557 346.515 231.407 325.957 231.407 325.957C231.407 325.957 218.003 317.364 215.616 295.088C215.326 292.678 215.215 290.088 215.237 287.343C215.527 262.232 215.839 248.215 228.218 236.229C229.645 234.823 231.273 233.439 233.057 232.077L282.035 194.891L286.027 191.856L337.235 152.974L337.837 152.527L338.372 152.125L338.841 151.768L382.108 118.913L432.335 80.7891L447.166 69.5173C447.523 69.1602 449.977 66.7495 454.526 63.9148H454.549C461.262 59.7856 472.458 54.8304 487.981 54.451C493.267 54.317 499.066 54.7188 505.355 55.8795C505.467 55.9018 505.556 55.9241 505.667 55.9464C505.667 55.9464 505.69 55.9464 505.712 55.9464C506.894 56.1473 508.098 56.4152 509.325 56.683L510.016 57.0625C510.039 57.0848 510.039 57.0848 510.061 57.0848L614.662 116.256L619.19 121.011L619.212 121.033L625.791 127.93C625.814 127.952 625.814 127.975 625.836 127.997L682.441 187.369C682.441 187.369 689.132 198.173 685.162 209.444Z" fill="url(#paint2_linear)"/>
<mask id="mask0" style="mask-type:alpha" maskUnits="userSpaceOnUse" x="215" y="54" width="472" height="340">
<path d="M684.928 209.444C684.794 209.779 684.682 210.092 684.549 210.427C683.01 214.176 680.266 217.949 675.627 221.341L612.644 264.241C606.376 268.437 600.332 271.83 581.219 261.273C568.684 254.13 556.551 265.96 556.551 265.96L508.488 302.543L411.849 376.112C411.849 376.112 409.061 378.634 404.066 381.781C393.784 388.276 374.18 397.428 350.628 392.45C347.996 391.937 345.342 391.2 342.621 390.285C328.369 385.441 309.612 375.531 291.569 364.907C260.323 346.515 231.172 325.957 231.172 325.957C231.172 325.957 217.768 317.364 215.382 295.088C215.092 292.678 214.98 290.088 215.003 287.343C215.293 262.232 215.605 248.215 227.983 236.229C229.411 234.823 231.039 233.439 232.823 232.077L281.8 194.891L285.793 191.856L337 152.974L337.603 152.527L338.138 152.125L338.606 151.768L381.874 118.913L432.101 80.7891L446.932 69.5173C447.289 69.1602 449.742 66.7495 454.292 63.9148H454.314C461.028 59.7856 472.224 54.8304 487.747 54.451C493.032 54.317 498.831 54.7188 505.121 55.8795C505.232 55.9018 505.321 55.9241 505.433 55.9464C505.433 55.9464 505.455 55.9464 505.478 55.9464C506.66 56.1473 507.864 56.4152 509.091 56.683L509.782 57.0625C509.804 57.0848 509.804 57.0848 509.827 57.0848L614.428 116.256L618.955 121.011L618.978 121.033L625.557 127.93C625.579 127.952 625.579 127.975 625.602 127.997L682.207 187.369C682.207 187.369 688.898 198.173 684.928 209.444Z" fill="url(#paint3_linear)"/>
</mask>
<g mask="url(#mask0)">
<g filter="url(#filter0_f)">
<path d="M685.791 209.444C685.657 209.779 685.546 210.092 685.412 210.427C683.918 214.31 681.13 218.216 676.335 221.743L613.373 264.621C607.106 268.817 601.062 272.232 581.926 261.674C569.414 254.51 557.281 266.339 557.281 266.339L509.553 302.677L412.579 376.491C412.579 376.491 409.858 378.946 404.974 382.049C394.692 388.589 374.842 397.919 350.978 392.785C348.48 392.272 345.915 391.557 343.328 390.687C329.121 385.866 310.431 375.978 292.433 365.375V365.353C261.119 346.939 231.88 326.337 231.88 326.337C231.88 326.337 218.052 317.409 216 294.262C216.067 294.552 216.156 294.82 216.245 295.088C216.245 295.111 216.245 295.133 216.245 295.133C216.245 295.155 216.245 295.155 216.245 295.177C220.661 310.601 230.229 316.761 230.229 316.761C230.229 316.761 260.316 337.988 292.143 356.603V356.626C309.74 366.915 327.827 376.424 341.678 381.111C369.556 390.553 393.042 379.192 404.104 371.982C408.498 369.125 410.929 366.915 410.929 366.915L501.59 297.901L555.631 256.764C555.631 256.764 567.763 244.956 580.298 252.099C599.411 262.657 605.456 259.241 611.723 255.068L674.707 212.168C682.847 206.163 685.211 199.043 685.256 192.86C686.683 196.99 687.865 203.128 685.791 209.444Z" fill="url(#paint4_linear)"/>
</g>
</g>
<g filter="url(#filter1_f)">
<path d="M621.752 161.143L504.527 250.269L487.287 263.393L439.625 299.619V299.642L399.926 329.819L396.067 332.743C396.067 332.743 374.723 349.84 340.577 339.149C328.891 334.283 310.491 324.663 290.061 313.391C271.505 303.124 251.254 291.495 232.921 280.759C232.921 280.759 208.432 264.286 228.215 236.229L232.408 233.037L282.21 195.003H282.233L286.024 192.079L337.232 152.974L337.834 152.527L338.37 152.126L338.838 151.768L382.083 118.756L432.31 80.4098C432.31 80.4098 432.31 80.4098 432.31 80.3875L455.617 62.5981C455.617 62.5981 457.089 61.7499 459.743 60.5892C465.118 58.2456 475.31 54.652 487.956 54.2725C493.376 54.094 499.219 54.5181 505.352 55.8796C505.464 55.9019 505.553 55.9243 505.665 55.9466C505.665 55.9466 505.687 55.9466 505.709 55.9466C507.114 56.2814 508.564 56.6608 510.014 57.0626C510.036 57.0849 510.036 57.0849 510.058 57.0849C511.887 57.6429 513.738 58.2679 515.612 59.0045L611.671 113.891C611.961 114.069 612.273 114.27 612.585 114.493C612.808 114.649 613.031 114.806 613.254 114.962C613.321 115.007 613.411 115.074 613.5 115.141C618.161 118.466 622.599 122.908 625.789 127.93C625.811 127.952 625.811 127.975 625.833 127.997C632.323 138.153 633.729 150.675 621.752 161.143Z" fill="#F9F9F9"/>
</g>
<path d="M615.487 158.286L503.883 242.657L439.36 291.428L399.237 321.761L393.973 325.734C393.973 325.734 372.629 342.809 338.484 332.14C326.418 327.118 309.2 317.877 289.841 306.896C273.403 297.543 255.427 286.964 237.741 276.607C237.741 276.607 213.832 260.491 232.41 233.037C232.611 232.725 232.834 232.412 233.057 232.077L282.035 194.892L286.027 191.856L337.235 152.974L337.837 152.527L338.372 152.125L338.84 151.768L382.108 118.913L432.335 80.7892L447.166 69.5174L454.526 63.9149H454.549L456.288 62.598C456.288 62.598 457.515 61.7721 459.745 60.5892C464.808 57.933 475.023 53.5359 487.869 53.0448C496.434 52.7323 506.158 54.1609 516.283 59.0044L611.673 113.89C611.963 114.069 612.276 114.27 612.588 114.493C612.811 114.649 613.034 114.806 613.257 114.962C613.324 115.007 613.413 115.073 613.502 115.14C615.465 116.636 617.428 118.622 619.19 121.011L619.212 121.033C626.26 130.452 629.984 145.697 615.487 158.286Z" fill="#202631"/>
<path d="M597.711 145.028L372.851 316.271L242.602 239.734L464.517 69.4507L597.711 145.028Z" fill="url(#paint5_linear)"/>
<path opacity="0.35" d="M576.122 109.047L572.375 110.877C571.572 111.256 570.636 111.234 569.877 110.788L516.863 79.6283C516.328 79.3158 516.35 78.5346 516.885 78.2444L519.718 76.749C520.454 76.3695 521.324 76.3695 522.037 76.7936L576.189 107.507C576.769 107.864 576.747 108.734 576.122 109.047Z" fill="url(#paint6_linear)"/>
<path d="M243.404 316.761C243.404 319.239 244.72 321.538 246.839 322.81L315.465 363.59C318.119 365.174 321.487 363.255 321.487 360.152V358.925C321.487 356.135 319.993 353.546 317.584 352.139L249.85 313.012C246.973 311.382 243.404 313.458 243.404 316.761Z" fill="black"/>
<path d="M474.419 296.74V299.441C474.419 300.445 473.973 301.383 473.192 302.008L453.053 318.034C452.272 318.659 451.09 318.101 451.09 317.096V313.882C451.09 313.056 451.469 312.297 452.093 311.762L472.01 295.602C472.991 294.798 474.419 295.49 474.419 296.74Z" fill="url(#paint7_linear)"/>
<path d="M451.67 317.342V314.128C451.67 313.302 452.049 312.543 452.673 312.007L472.59 295.847C472.947 295.557 473.371 295.468 473.772 295.535C473.259 295.2 472.568 295.155 472.01 295.602L452.093 311.762C451.469 312.275 451.09 313.056 451.09 313.882V317.096C451.09 317.744 451.581 318.168 452.138 318.257C451.893 318.034 451.67 317.744 451.67 317.342Z" fill="url(#paint8_linear)"/>
<path d="M446.83 319.529C446.83 321.515 445.402 323.814 443.641 324.64C441.879 325.466 440.451 324.529 440.451 322.52C440.451 320.533 441.879 318.234 443.641 317.408C445.402 316.583 446.83 317.542 446.83 319.529Z" fill="url(#paint9_linear)"/>
<path d="M437.217 327.341C437.217 329.328 435.789 331.627 434.027 332.453C432.265 333.279 430.838 332.341 430.838 330.332C430.838 328.323 432.265 326.047 434.027 325.221C435.789 324.417 437.217 325.355 437.217 327.341Z" fill="url(#paint10_linear)"/>
<path d="M427.359 335.154C427.359 337.14 425.932 339.439 424.17 340.265C422.408 341.091 420.98 340.153 420.98 338.144C420.98 336.158 422.408 333.859 424.17 333.033C425.932 332.207 427.359 333.145 427.359 335.154Z" fill="url(#paint11_linear)"/>
<path d="M421.449 338.323C421.449 336.336 422.877 334.037 424.638 333.212C425.218 332.944 425.776 332.877 426.244 332.966C425.687 332.698 424.995 332.698 424.215 333.078C422.453 333.904 421.025 336.203 421.025 338.189C421.025 339.528 421.672 340.376 422.609 340.555C421.895 340.198 421.449 339.439 421.449 338.323Z" fill="black"/>
<path d="M431.283 330.533C431.283 328.546 432.711 326.247 434.472 325.422C435.052 325.154 435.61 325.087 436.078 325.176C435.521 324.908 434.829 324.908 434.049 325.288C432.287 326.114 430.859 328.413 430.859 330.399C430.859 331.738 431.506 332.586 432.443 332.765C431.729 332.408 431.283 331.627 431.283 330.533Z" fill="black"/>
<path d="M440.963 322.721C440.963 320.734 442.39 318.435 444.152 317.61C444.732 317.342 445.29 317.275 445.758 317.364C445.2 317.096 444.509 317.096 443.728 317.476C441.966 318.301 440.539 320.601 440.539 322.587C440.539 323.926 441.186 324.774 442.123 324.953C441.431 324.596 440.963 323.837 440.963 322.721Z" fill="black"/>
<path d="M144.201 272.165V366.179C144.201 373.657 137.666 378.902 130.93 378.188C129.369 378.031 127.786 377.54 126.291 376.692L93.2605 358.166V358.144L40.9376 328.792L11.0961 312.052C4.31602 308.257 0.123047 301.093 0.123047 293.325V195.16C0.123047 189.088 4.69517 184.58 10.0033 183.865C12.3897 183.531 14.9323 183.977 17.2741 185.361L29.3623 192.503L133.964 254.197C140.298 257.947 144.201 264.777 144.201 272.165Z" fill="url(#paint12_linear)"/>
<path d="M146.632 271.719V365.755C146.632 373.991 138.38 380.353 130.931 378.187C139.696 378.187 143.421 372.072 143.421 366.313V272.277C143.421 264.911 139.518 258.081 133.161 254.331L29.6531 193.24L16.4943 185.472C15.7137 185.004 12.4128 183.798 10.0041 183.865H9.89258C12.7474 182.972 18.7023 182.839 23.096 185.472L27.735 188.262L136.373 253.773C142.729 257.523 146.632 264.353 146.632 271.719Z" fill="url(#paint13_linear)"/>
<path d="M13.6387 288.303V293.682L46.9594 312.922V307.32L13.6387 288.303Z" fill="white"/>
<path d="M52.1113 309.753V315.132L85.4098 334.372V328.748L52.1113 309.753Z" fill="white"/>
<path d="M124.995 354.868C129.262 351.445 128.837 343.82 124.046 337.837C119.254 331.854 111.91 329.779 107.643 333.202C103.375 336.625 103.8 344.25 108.592 350.233C113.383 356.216 120.727 358.291 124.995 354.868Z" stroke="white" stroke-miterlimit="10"/>
<g opacity="0.15" filter="url(#filter2_d)">
<path d="M93.2605 358.144V358.166L40.9376 328.815V328.792L31.5257 304.016L28.8494 297.008L14.2632 258.572L10.1148 247.657L0.123047 221.364V195.159C0.123047 189.088 4.69517 184.58 10.0033 183.865H9.89178C12.7466 182.972 18.7015 182.839 23.0952 185.472L27.7342 188.262L29.3623 192.503L29.6523 193.24L59.6722 271.094L60.988 274.486L80.9493 326.225L83.7148 333.39L93.2605 358.144Z" fill="#F9F9F9"/>
</g>
<path d="M39.0645 261.34V270.647C39.0645 271.607 39.5551 272.478 40.358 272.991L59.2041 283.839C59.9847 284.307 60.966 283.772 60.966 282.857V273.437C60.966 272.478 60.4754 271.585 59.6502 271.094L40.8041 260.358C40.0681 259.889 39.0645 260.425 39.0645 261.34Z" fill="white"/>
<path d="M67.9688 277.544V286.852C67.9688 287.812 68.4594 288.682 69.2623 289.196L88.1084 300.088C88.889 300.557 89.8703 300.021 89.8703 299.106V289.687C89.8703 288.727 89.3797 287.834 88.5545 287.343L69.7084 276.562C68.9724 276.071 67.9688 276.629 67.9688 277.544Z" fill="white"/>
<path d="M97.207 293.102V302.409C97.207 303.369 97.6977 304.24 98.5006 304.753L117.347 315.311C118.127 315.779 119.109 315.244 119.109 314.328V304.909C119.109 303.949 118.618 303.057 117.793 302.565L98.9467 292.119C98.1884 291.628 97.207 292.186 97.207 293.102Z" fill="white"/>
<path opacity="0.36" d="M399.236 321.761L393.972 325.734C393.972 325.734 372.628 342.809 338.482 332.14C326.416 327.118 309.198 317.877 289.839 306.896L286.494 206.052L286.025 192.079V191.856L337.233 152.974L337.835 152.527L338.839 151.768L382.085 118.756L382.107 118.913L399.236 321.761Z" fill="url(#paint14_linear)"/>
<path opacity="0.29" d="M496.767 193.128C478.456 211.453 440.786 219.645 412.639 211.431C384.471 203.217 376.464 181.723 394.775 163.42C413.086 145.095 450.755 136.903 478.902 145.117C507.071 153.309 515.055 174.803 496.767 193.128Z" fill="url(#paint15_linear)"/>
<path opacity="0.81" d="M444.572 213.601C478.056 208.901 502.983 189.277 500.249 169.769C497.515 150.261 468.155 138.257 434.671 142.957C401.187 147.657 376.259 167.282 378.993 186.789C381.727 206.297 411.088 218.301 444.572 213.601Z" fill="#F9F9F9"/>
<path opacity="0.81" fill-rule="evenodd" clip-rule="evenodd" d="M404 152.475C412.271 148.482 422 145.505 432.584 144.019C466.068 139.319 495.429 151.323 498.163 170.831C499.962 183.668 489.783 196.556 473.07 205.208C490.965 196.568 502.033 183.172 500.163 169.831C497.429 150.323 468.068 138.319 434.584 143.019C423.135 144.626 412.685 147.979 404 152.475Z" fill="#F9F9F9"/>
<g filter="url(#filter3_d)">
<path d="M416.789 172.906L422.119 187.258L477.476 175.205" stroke="url(#paint16_linear)" stroke-width="2" stroke-miterlimit="10" shape-rendering="crispEdges"/>
</g>
<path opacity="0.35" d="M253.976 273.214C258.349 273.214 261.894 270.996 261.894 268.259C261.894 265.522 258.349 263.304 253.976 263.304C249.603 263.304 246.059 265.522 246.059 268.259C246.059 270.996 249.603 273.214 253.976 273.214Z" fill="url(#paint17_linear)"/>
<path opacity="0.35" d="M291.402 294.664C295.775 294.664 299.319 292.446 299.319 289.709C299.319 286.972 295.775 284.754 291.402 284.754C287.029 284.754 283.484 286.972 283.484 289.709C283.484 292.446 287.029 294.664 291.402 294.664Z" fill="url(#paint18_linear)"/>
<path opacity="0.35" d="M326.683 314.641C331.056 314.641 334.601 312.422 334.601 309.686C334.601 306.949 331.056 304.73 326.683 304.73C322.31 304.73 318.766 306.949 318.766 309.686C318.766 312.422 322.31 314.641 326.683 314.641Z" fill="url(#paint19_linear)"/>
<g opacity="0.11">
<path opacity="0.7" d="M501.63 430.908L494.158 426.02L495.385 424.145L502.856 429.033L501.63 430.908ZM486.709 421.132L479.237 416.244L480.464 414.369L487.936 419.257L486.709 421.132ZM471.766 411.356L466.525 407.918C465.722 407.383 464.963 406.78 464.294 406.088L465.878 404.526C466.435 405.084 467.06 405.619 467.751 406.043L472.992 409.481L471.766 411.356ZM460.503 397.361C460.503 397.16 460.48 396.959 460.48 396.736C460.48 393.656 461.551 390.665 463.469 388.299L465.186 389.705C463.581 391.669 462.711 394.169 462.711 396.736C462.711 396.914 462.711 397.071 462.711 397.249L460.503 397.361ZM472.011 384.482L470.74 382.652L478.078 377.585L479.349 379.415L472.011 384.482ZM486.687 374.348L485.415 372.518L492.753 367.451L494.024 369.282L486.687 374.348ZM501.384 364.192L500.113 362.362L507.451 357.295L508.722 359.126L501.384 364.192ZM516.06 354.059L514.788 352.229L522.126 347.162L523.397 348.992L516.06 354.059ZM530.735 343.903L529.464 342.073L536.801 337.006L538.073 338.836L530.735 343.903ZM545.165 332.877L543.336 331.605C544.608 329.752 545.277 327.587 545.277 325.31C545.277 324.841 545.254 324.373 545.187 323.882L547.395 323.614C547.462 324.172 547.507 324.752 547.507 325.31C547.507 328.033 546.704 330.645 545.165 332.877ZM541.441 316.895C541.106 316.605 540.727 316.315 540.348 316.069L534.192 311.94L535.441 310.088L541.597 314.217C542.065 314.529 542.489 314.864 542.913 315.221L541.441 316.895ZM526.787 306.963L519.383 301.985L520.632 300.133L528.036 305.11L526.787 306.963ZM511.956 297.03L509.123 295.133L510.372 293.28L513.205 295.178L511.956 297.03Z" fill="black"/>
</g>
<path d="M594.945 441.489C594.945 441.489 561.402 464.568 560.71 464.568C544.206 476.867 517.487 477.358 519.227 476.867L486.396 451.064V406.825L509.525 394.437L524.289 395.397L594.945 441.489Z" fill="url(#paint20_linear)"/>
<path d="M553.171 453.184C553.171 453.184 516.75 476.732 516.17 476.732C515.59 476.732 505.754 476.732 505.754 476.732L469.133 457.068V420.217L501.896 426.4L516.148 425.44L553.148 419.056V453.184H553.171Z" fill="url(#paint21_linear)"/>
<path d="M553.171 419.056C553.171 419.056 516.75 442.604 516.17 442.604C515.59 442.604 505.754 442.604 505.754 442.604L469.133 422.94V411.936L501.896 392.272L516.148 391.312L552.189 410.017L553.171 419.056Z" fill="url(#paint22_linear)"/>
<g opacity="0.82">
<path opacity="0.82" d="M532.831 417.72C533.13 409.306 523.683 402.139 511.73 401.713C499.777 401.287 489.844 407.763 489.544 416.177C489.245 424.592 498.692 431.759 510.645 432.185C522.598 432.611 532.531 426.135 532.831 417.72Z" fill="black"/>
<path opacity="0.82" d="M530.401 417.632C530.668 410.154 522.281 403.785 511.67 403.406C501.058 403.028 492.24 408.784 491.974 416.262C491.708 423.74 500.094 430.109 510.706 430.487C521.317 430.865 530.135 425.11 530.401 417.632Z" fill="#E17200"/>
<path opacity="0.82" d="M527.989 417.541C528.221 411.012 520.885 405.45 511.603 405.119C502.321 404.788 494.608 409.813 494.376 416.343C494.143 422.872 501.48 428.434 510.761 428.765C520.043 429.096 527.756 424.071 527.989 417.541Z" fill="#FFA400"/>
<path opacity="0.82" d="M525.205 417.441C525.399 411.983 519.279 407.335 511.536 407.059C503.793 406.783 497.358 410.983 497.164 416.441C496.97 421.899 503.09 426.547 510.833 426.823C518.576 427.099 525.01 422.899 525.205 417.441Z" fill="black"/>
<path opacity="0.82" d="M515.165 409.442C515.23 407.619 513.187 406.066 510.601 405.974C508.016 405.881 505.868 407.285 505.803 409.108C505.738 410.932 507.781 412.484 510.366 412.577C512.952 412.669 515.1 411.265 515.165 409.442Z" fill="white"/>
</g>
<path opacity="0.09" d="M504.528 250.269L487.288 263.393L439.626 299.642V299.619L439.358 291.428L436.883 217.324L435.768 184.289L434.407 142.974L432.333 80.7893L432.311 80.4098C432.311 80.4098 432.311 80.4098 432.311 80.3875L455.617 62.5981C455.617 62.5981 457.089 61.7499 459.743 60.5892C464.806 57.9331 475.021 53.536 487.867 53.0449L487.957 54.2725L487.979 54.4511L503.881 242.658L504.528 250.269Z" fill="url(#paint23_linear)"/>
<path opacity="0.62" d="M377.623 154.469C400.885 135.252 441.209 126.279 474.441 132.774C477.362 133.354 480.217 134.046 483.027 134.85" stroke="#F9F9F9" stroke-miterlimit="10" stroke-linecap="round" stroke-linejoin="round"/>
<path opacity="0.62" d="M387.614 218.685C360.539 207.436 352.309 185.338 367.564 164.871" stroke="#F9F9F9" stroke-miterlimit="10" stroke-linecap="round" stroke-linejoin="round"/>
<path opacity="0.62" d="M499.489 203.753C476.116 221.676 437.532 229.957 405.438 223.886" stroke="#F9F9F9" stroke-miterlimit="10" stroke-linecap="round" stroke-linejoin="round"/>
<path opacity="0.62" d="M490.01 137.215C518.245 148.197 527.144 170.607 511.889 191.387" stroke="#F9F9F9" stroke-miterlimit="10" stroke-linecap="round" stroke-linejoin="round"/>
<path d="M18.3449 228.439L11.6094 224.645V217.837L18.3003 221.631L18.3449 221.564V228.439Z" fill="white"/>
<path d="M19.9297 233.484V217.279C19.9297 216.967 20.1527 216.788 20.2419 216.721C20.2865 216.676 20.4204 216.632 20.5765 216.632C20.6434 216.632 20.7549 216.654 20.8664 216.699L24.2119 218.373C24.7471 218.663 25.0817 219.199 25.0817 219.801V236.229C25.0817 236.564 24.8587 236.72 24.7694 236.787C24.6802 236.854 24.4126 236.966 24.1227 236.787L20.7326 234.845C20.2419 234.6 19.9297 234.064 19.9297 233.484Z" fill="white"/>
<path d="M34.3139 221.877V228.194L26.6639 224.109L26.6416 224.154V219.846C26.6416 218.641 25.9725 217.547 24.902 217.011L21.5565 215.315C20.8651 214.958 20.0399 215.002 19.3931 215.404C18.7463 215.806 18.3226 216.52 18.3226 217.301V219.846L11.6094 216.029V210.828C11.6094 208.396 14.2411 206.9 16.3599 208.128L31.5929 217.123C33.2879 218.105 34.3139 219.913 34.3139 221.877Z" fill="white"/>
<path d="M26.6426 225.873L34.3148 229.823V237.033L26.6872 232.703L26.6426 232.792V225.873Z" fill="white"/>
<path d="M26.6416 234.51L34.3139 238.863V242.836C34.3139 245.246 31.749 246.764 29.6302 245.581L14.4196 237.055C12.6799 236.073 11.6094 234.242 11.6094 232.256V226.43L18.3003 230.247L18.3449 230.18V233.506C18.3449 234.644 18.9694 235.716 19.9507 236.274L23.3408 238.215C23.6753 238.416 24.0768 238.528 24.4336 238.528C24.8128 238.528 25.1919 238.416 25.5488 238.215C26.2402 237.814 26.6416 237.077 26.6416 236.274V234.51Z" fill="white"/>
<path d="M9.24414 246.876V256.184C9.24414 257.143 9.73481 258.014 10.5377 258.527L30.209 269.42C30.9896 269.888 31.9709 269.353 31.9709 268.438V259.018C31.9709 258.059 31.4803 257.166 30.6551 256.675L10.9838 245.894C10.2255 245.403 9.24414 245.961 9.24414 246.876Z" fill="white"/>
<g style="mix-blend-mode:overlay" filter="url(#filter4_f)">
<ellipse cx="234" cy="310.5" rx="114" ry="64.5" fill="#F6BF06"/>
</g>
</g>
<defs>
<filter id="filter0_f" x="205" y="181.86" width="492.91" height="223.407" filterUnits="userSpaceOnUse" color-interpolation-filters="sRGB">
<feFlood flood-opacity="0" result="BackgroundImageFix"/>
<feBlend mode="normal" in="SourceGraphic" in2="BackgroundImageFix" result="shape"/>
<feGaussianBlur stdDeviation="5.5" result="effect1_foregroundBlur"/>
</filter>
<filter id="filter1_f" x="216.496" y="50.2339" width="418.258" height="296.432" filterUnits="userSpaceOnUse" color-interpolation-filters="sRGB">
<feFlood flood-opacity="0" result="BackgroundImageFix"/>
<feBlend mode="normal" in="SourceGraphic" in2="BackgroundImageFix" result="shape"/>
<feGaussianBlur stdDeviation="2" result="effect1_foregroundBlur"/>
</filter>
<filter id="filter2_d" x="-3.87695" y="183.286" width="101.137" height="182.88" filterUnits="userSpaceOnUse" color-interpolation-filters="sRGB">
<feFlood flood-opacity="0" result="BackgroundImageFix"/>
<feColorMatrix in="SourceAlpha" type="matrix" values="0 0 0 0 0 0 0 0 0 0 0 0 0 0 0 0 0 0 127 0" result="hardAlpha"/>
<feOffset dy="4"/>
<feGaussianBlur stdDeviation="2"/>
<feComposite in2="hardAlpha" operator="out"/>
<feColorMatrix type="matrix" values="0 0 0 0 0 0 0 0 0 0 0 0 0 0 0 0 0 0 0.25 0"/>
<feBlend mode="normal" in2="BackgroundImageFix" result="effect1_dropShadow"/>
<feBlend mode="normal" in="SourceGraphic" in2="effect1_dropShadow" result="shape"/>
</filter>
<filter id="filter3_d" x="409.852" y="165.558" width="75.8359" height="29.8618" filterUnits="userSpaceOnUse" color-interpolation-filters="sRGB">
<feFlood flood-opacity="0" result="BackgroundImageFix"/>
<feColorMatrix in="SourceAlpha" type="matrix" values="0 0 0 0 0 0 0 0 0 0 0 0 0 0 0 0 0 0 127 0" result="hardAlpha"/>
<feOffset dx="1"/>
<feGaussianBlur stdDeviation="3.5"/>
<feComposite in2="hardAlpha" operator="out"/>
<feColorMatrix type="matrix" values="0 0 0 0 0.954167 0 0 0 0 0.262396 0 0 0 0 0.262396 0 0 0 0.65 0"/>
<feBlend mode="normal" in2="BackgroundImageFix" result="effect1_dropShadow"/>
<feBlend mode="normal" in="SourceGraphic" in2="effect1_dropShadow" result="shape"/>
</filter>
<filter id="filter4_f" x="16" y="142" width="436" height="337" filterUnits="userSpaceOnUse" color-interpolation-filters="sRGB">
<feFlood flood-opacity="0" result="BackgroundImageFix"/>
<feBlend mode="normal" in="SourceGraphic" in2="BackgroundImageFix" result="shape"/>
<feGaussianBlur stdDeviation="52" result="effect1_foregroundBlur"/>
</filter>
<linearGradient id="paint0_linear" x1="1006.42" y1="-106.854" x2="-873.96" y2="1054.26" gradientUnits="userSpaceOnUse">
<stop stop-color="white" stop-opacity="0"/>
<stop offset="0.2097" stop-color="#D1D4E7" stop-opacity="0.2838"/>
<stop offset="0.4497" stop-color="#B6BBD9"/>
</linearGradient>
<linearGradient id="paint1_linear" x1="228.575" y1="262.34" x2="-66.1074" y2="424.11" gradientUnits="userSpaceOnUse">
<stop stop-color="white" stop-opacity="0"/>
<stop offset="0.2838" stop-color="#D1D4E7" stop-opacity="0.2838"/>
<stop offset="0.4497" stop-color="#B6BBD9"/>
</linearGradient>
<linearGradient id="paint2_linear" x1="288.108" y1="35.1866" x2="607.258" y2="455.265" gradientUnits="userSpaceOnUse">
<stop stop-color="white"/>
<stop offset="0.9955" stop-color="#B6BBD9"/>
</linearGradient>
<linearGradient id="paint3_linear" x1="287.873" y1="35.1866" x2="607.024" y2="455.265" gradientUnits="userSpaceOnUse">
<stop stop-color="white"/>
<stop offset="0.9955" stop-color="#B6BBD9"/>
</linearGradient>
<linearGradient id="paint4_linear" x1="340.304" y1="532.515" x2="377.284" y2="438.817" gradientUnits="userSpaceOnUse">
<stop stop-color="white"/>
<stop offset="0.9955" stop-color="#B6BBD9"/>
</linearGradient>
<linearGradient id="paint5_linear" x1="54.3137" y1="252.571" x2="1327.07" y2="44.3444" gradientUnits="userSpaceOnUse">
<stop stop-color="#FFC700"/>
<stop stop-color="#FFC700"/>
<stop offset="0.539" stop-color="#AD0FE4" stop-opacity="0.7976"/>
<stop offset="1" stop-color="#FF5C00" stop-opacity="0.7976"/>
</linearGradient>
<linearGradient id="paint6_linear" x1="516.448" y1="93.8154" x2="576.609" y2="93.8154" gradientUnits="userSpaceOnUse">
<stop stop-color="white"/>
<stop offset="0.9955" stop-color="#B6BBD9"/>
</linearGradient>
<linearGradient id="paint7_linear" x1="451.101" y1="306.771" x2="474.428" y2="306.771" gradientUnits="userSpaceOnUse">
<stop/>
<stop offset="1" stop-color="#8A8A8A" stop-opacity="0.81"/>
</linearGradient>
<linearGradient id="paint8_linear" x1="462.776" y1="301.032" x2="460.506" y2="325.326" gradientUnits="userSpaceOnUse">
<stop/>
<stop offset="1" stop-color="#8A8A8A" stop-opacity="0.81"/>
</linearGradient>
<linearGradient id="paint9_linear" x1="442.409" y1="315.448" x2="446.413" y2="333.43" gradientUnits="userSpaceOnUse">
<stop/>
<stop offset="1" stop-color="#8A8A8A" stop-opacity="0.81"/>
</linearGradient>
<linearGradient id="paint10_linear" x1="438.261" y1="319.07" x2="428.522" y2="341.585" gradientUnits="userSpaceOnUse">
<stop/>
<stop offset="1" stop-color="#8A8A8A" stop-opacity="0.81"/>
</linearGradient>
<linearGradient id="paint11_linear" x1="427.376" y1="344.742" x2="420.112" y2="326.432" gradientUnits="userSpaceOnUse">
<stop/>
<stop offset="1" stop-color="#8A8A8A" stop-opacity="0.81"/>
</linearGradient>
<linearGradient id="paint12_linear" x1="175.774" y1="233.161" x2="-354.532" y2="477.017" gradientUnits="userSpaceOnUse">
<stop stop-color="#FFC700"/>
<stop offset="0.539" stop-color="#AD0FE4" stop-opacity="0.7976"/>
<stop offset="1" stop-color="#FF5C00" stop-opacity="0.7976"/>
</linearGradient>
<linearGradient id="paint13_linear" x1="230.431" y1="196.497" x2="-148.743" y2="400.781" gradientUnits="userSpaceOnUse">
<stop stop-color="#FFC700"/>
<stop offset="0.539" stop-color="#420657" stop-opacity="0.8"/>
<stop offset="1" stop-color="#4D1C00" stop-opacity="0.8"/>
</linearGradient>
<linearGradient id="paint14_linear" x1="333.606" y1="-173.624" x2="343.567" y2="300.39" gradientUnits="userSpaceOnUse">
<stop stop-color="#878787"/>
<stop offset="0.0338" stop-color="white" stop-opacity="0.99"/>
<stop offset="1" stop-color="white" stop-opacity="0"/>
</linearGradient>
<linearGradient id="paint15_linear" x1="442.28" y1="232.234" x2="449.765" y2="116.304" gradientUnits="userSpaceOnUse">
<stop/>
<stop offset="1" stop-color="#8A8A8A" stop-opacity="0.81"/>
</linearGradient>
<linearGradient id="paint16_linear" x1="414.697" y1="180.982" x2="477.954" y2="180.982" gradientUnits="userSpaceOnUse">
<stop stop-color="#FFC700"/>
<stop offset="0.539" stop-color="#AD0FE4" stop-opacity="0.7976"/>
<stop offset="1" stop-color="#FF5C00" stop-opacity="0.7976"/>
</linearGradient>
<linearGradient id="paint17_linear" x1="412.721" y1="207.811" x2="155.052" y2="305.79" gradientUnits="userSpaceOnUse">
<stop stop-color="white"/>
<stop offset="0.9955" stop-color="#B6BBD9"/>
</linearGradient>
<linearGradient id="paint18_linear" x1="424.58" y1="238.996" x2="166.912" y2="336.974" gradientUnits="userSpaceOnUse">
<stop stop-color="white"/>
<stop offset="0.9955" stop-color="#B6BBD9"/>
</linearGradient>
<linearGradient id="paint19_linear" x1="435.672" y1="268.17" x2="178.003" y2="366.149" gradientUnits="userSpaceOnUse">
<stop stop-color="white"/>
<stop offset="0.9955" stop-color="#B6BBD9"/>
</linearGradient>
<linearGradient id="paint20_linear" x1="714.547" y1="376.461" x2="-65.8411" y2="613.629" gradientUnits="userSpaceOnUse">
<stop stop-color="white" stop-opacity="0"/>
<stop offset="0.4497" stop-color="#B6BBD9"/>
</linearGradient>
<linearGradient id="paint21_linear" x1="510.409" y1="531.99" x2="511.341" y2="413.445" gradientUnits="userSpaceOnUse">
<stop stop-color="white"/>
<stop offset="0.9955" stop-color="#B6BBD9"/>
</linearGradient>
<linearGradient id="paint22_linear" x1="472.315" y1="428.105" x2="574.092" y2="398.572" gradientUnits="userSpaceOnUse">
<stop stop-color="white"/>
<stop offset="0.9955" stop-color="#B6BBD9"/>
</linearGradient>
<linearGradient id="paint23_linear" x1="455.379" y1="-126.154" x2="491.044" y2="729.137" gradientUnits="userSpaceOnUse">
<stop stop-color="#878787"/>
<stop offset="0.0338" stop-color="white" stop-opacity="0.99"/>
<stop offset="1" stop-color="white" stop-opacity="0"/>
</linearGradient>
<clipPath id="clip0">
<rect width="778" height="477" fill="white"/>
</clipPath>
</defs>
</svg>
