<svg width="222" height="48" viewBox="0 0 222 48" fill="none" xmlns="http://www.w3.org/2000/svg">
<path d="M149.215 5.41333V8.20128H155.354V30.4087H159.195V8.20128H165.334V5.41333H149.215Z" fill="black" fill-opacity="0.5"/>
<path d="M169.329 13.0722C167.271 12.6235 165.865 13.4247 164.905 14.9308V13.2324H161.441V30.4087H164.905V20.2504C164.905 18.8083 164.733 17.3983 165.865 16.3729C166.859 15.4756 168.266 15.4435 169.329 15.4756V13.0722Z" fill="black" fill-opacity="0.5"/>
<path d="M182.591 30.4087V19.1288C182.591 17.3022 182.831 14.9629 180.327 13.649C178.544 12.6876 174.806 12.7197 173.126 13.649C171.034 14.8026 171.102 16.4369 171.102 17.9751H174.223C174.223 17.0458 174.326 15.6038 175.629 15.027C176.349 14.7065 177.481 14.7065 178.133 15.1231C179.402 15.8922 179.127 17.7508 179.161 19.7376H178.338C176.521 19.7376 172.542 20.026 171.274 22.3653C170.382 23.8715 170.485 27.4926 171.205 28.7424C172.062 30.1524 173.571 30.6972 174.737 30.7933C176.658 30.8574 177.721 30.5049 179.161 28.5501V30.4087H182.591ZM175.458 22.4294C176.246 21.9488 178.064 21.8206 179.161 21.7885C179.161 23.1985 179.333 26.8197 177.755 27.7169C177.035 28.1335 176.006 28.3258 175.252 27.9733C174.292 27.5247 174.086 26.8197 174.017 25.8583C173.983 24.9931 174.017 23.2947 175.458 22.4294Z" fill="black" fill-opacity="0.5"/>
<path d="M196.736 30.4087V5.41333H193.272V14.5783C192.758 14.0015 192.209 13.5529 191.455 13.2645C190.186 12.7517 188.059 12.8158 186.928 13.5208C184.801 14.8026 184.767 17.3983 184.767 19.1608V24.224C184.767 26.9478 184.836 29.4153 187.579 30.3767C189.466 31.0497 191.798 31.0176 193.272 29.159V30.4087H196.736ZM191.42 15.059C193.478 15.8281 193.272 18.5519 193.272 19.8338V23.4228C193.272 25.8903 193.341 27.1722 191.798 28.1015C191.009 28.5181 190.083 28.5501 189.431 28.2297C188.025 27.5247 188.197 25.2815 188.197 23.8715V19.4492C188.197 17.7508 188.059 16.0204 189.225 15.2833C189.911 14.8347 190.734 14.8347 191.42 15.059Z" fill="black" fill-opacity="0.5"/>
<path d="M210.5 22.7819V20.4426C210.5 19.0647 210.74 15.059 208.202 13.649C206.316 12.6556 202.955 12.7517 201.24 13.649C198.737 14.9949 198.908 18.0072 198.908 19.5133V24.1278C198.908 25.5378 198.874 28.7744 201.24 30.0242C203.127 31.0497 206.247 31.0176 208.236 29.9922C210.26 28.9667 210.5 26.5633 210.5 25.2494H207.036C207.036 26.4031 207.002 28.0053 205.664 28.3578C204.944 28.5501 204.121 28.5822 203.538 28.2297C202.269 27.4606 202.338 25.1213 202.338 22.7819H210.5ZM205.973 15.5397C207.208 16.2447 207.036 19.2569 207.036 20.2824H202.338C202.338 19.2569 202.166 16.1485 203.607 15.4435C204.155 15.1872 205.253 15.1551 205.973 15.5397Z" fill="black" fill-opacity="0.5"/>
<path d="M73.6942 12.1112C73.7285 10.573 73.6599 7.59279 71.225 6.1187C68.8929 4.7087 63.8515 4.74075 61.5194 5.86234C58.1585 7.46461 58.2957 10.7332 58.2957 12.5598V23.4873C58.2957 25.9548 58.33 28.3582 61.4166 29.8964C63.9201 31.2102 68.8929 30.9859 71.4307 29.608C74.0372 28.198 73.8657 26.6598 73.8657 24.4487V16.918H66.115V19.8021H70.1275V23.3591C70.1275 24.8973 70.299 26.6918 68.8929 27.4289C67.5211 28.1339 65.2576 28.1018 64.1259 27.5571C61.9653 26.4355 62.1368 24.3846 62.1368 22.8464V12.7841C62.1368 11.4062 62.0682 9.25915 63.9201 8.13756C65.0175 7.46461 67.0067 7.46461 68.0355 7.8812C70.1618 8.81051 70.3676 10.7332 70.4362 12.1112H73.6942Z" fill="black"/>
<path d="M87.3817 22.7823V20.443C87.3817 19.065 87.6218 15.0594 85.0839 13.6494C83.1977 12.656 79.8368 12.7521 78.122 13.6494C75.6185 14.9953 75.79 18.0075 75.79 19.5137V24.1282C75.79 25.5382 75.7557 28.7748 78.122 30.0246C80.0083 31.05 83.1291 31.018 85.1182 29.9925C87.1417 28.9671 87.3817 26.5637 87.3817 25.2498H83.9179C83.9179 26.4034 83.8836 28.0057 82.5461 28.3582C81.8259 28.5505 81.0028 28.5825 80.4198 28.23C79.1509 27.4609 79.2195 25.1216 79.2195 22.7823H87.3817ZM82.8548 15.54C84.0894 16.245 83.9179 19.2573 83.9179 20.2828H79.2195C79.2195 19.2573 79.048 16.1489 80.4884 15.4439C81.0371 15.1875 82.1346 15.1555 82.8548 15.54Z" fill="black"/>
<path d="M97.9084 30.4091H101.372V19.0971C101.372 17.4307 101.544 14.3544 98.903 13.3289C97.0511 12.5919 94.7533 12.7841 92.9014 14.6107V13.2328H89.4375V30.4091H92.9014C92.9014 30.345 92.9014 19.6419 92.9014 19.6419C92.9014 18.5523 92.7985 16.3732 94.136 15.5721C94.9248 15.1235 95.9536 15.1875 96.7424 15.508C98.1142 16.0848 97.9084 18.4562 97.9084 19.5457V30.4091Z" fill="black"/>
<path d="M115.131 22.7823V20.443C115.131 19.065 115.371 15.0594 112.834 13.6494C110.947 12.656 107.586 12.7521 105.872 13.6494C103.368 14.9953 103.54 18.0075 103.54 19.5137V24.1282C103.54 25.5382 103.505 28.7748 105.872 30.0246C107.758 31.05 110.879 31.018 112.868 29.9925C114.891 28.9671 115.131 26.5637 115.131 25.2498H111.667C111.667 26.4034 111.633 28.0057 110.296 28.3582C109.575 28.5505 108.752 28.5825 108.169 28.23C106.9 27.4609 106.969 25.1216 106.969 22.7823H115.131ZM110.604 15.54C111.839 16.245 111.667 19.2573 111.667 20.2828H106.969C106.969 19.2573 106.798 16.1489 108.238 15.4439C108.787 15.1875 109.884 15.1555 110.604 15.54Z" fill="black"/>
<path d="M124.938 13.0726C122.88 12.6239 121.474 13.4251 120.514 14.9312V13.2328H117.05V30.4091H120.514V20.2507C120.514 18.8087 120.342 17.3987 121.474 16.3732C122.469 15.476 123.875 15.4439 124.938 15.476V13.0726Z" fill="black"/>
<path d="M138.2 30.4091V19.1291C138.2 17.3025 138.44 14.9632 135.937 13.6494C134.153 12.688 130.415 12.7201 128.735 13.6494C126.643 14.803 126.711 16.4373 126.711 17.9755H129.832C129.832 17.0462 129.935 15.6041 131.238 15.0273C131.958 14.7069 133.09 14.7069 133.742 15.1235C135.011 15.8925 134.736 17.7512 134.771 19.738H133.948C132.13 19.738 128.152 20.0264 126.883 22.3657C125.991 23.8719 126.094 27.493 126.814 28.7428C127.672 30.1528 129.181 30.6975 130.347 30.7937C132.267 30.8577 133.33 30.5052 134.771 28.5505V30.4091H138.2ZM131.067 22.4298C131.856 21.9491 133.673 21.8209 134.771 21.7889C134.771 23.1989 134.942 26.82 133.365 27.7173C132.644 28.1339 131.615 28.3262 130.861 27.9737C129.901 27.525 129.695 26.82 129.626 25.8587C129.592 24.9934 129.626 23.295 131.067 22.4298Z" fill="black"/>
<path d="M140.582 5.4137V30.4091H144.046V5.4137H140.582Z" fill="black"/>
<path d="M60.0005 45.5346C60.6026 45.5346 61.0866 45.353 61.4524 44.9898C61.8182 44.6266 62.0011 44.1495 62.0011 43.5584V41.5716H60.0806V42.1591H61.3724V43.5584C61.3724 43.975 61.2466 44.3115 60.9951 44.5679C60.7436 44.8207 60.4121 44.9471 60.0005 44.9471C59.589 44.9471 59.2575 44.8207 59.006 44.5679C58.7545 44.3115 58.6287 43.975 58.6287 43.5584V39.1575C58.6287 38.7409 58.7545 38.4062 59.006 38.1534C59.2575 37.8971 59.589 37.7689 60.0005 37.7689C60.4121 37.7689 60.7436 37.8971 60.9951 38.1534C61.2466 38.4062 61.3724 38.7409 61.3724 39.1575V39.3712H62.0011V39.1575C62.0011 38.5629 61.8182 38.0858 61.4524 37.7262C61.0866 37.363 60.6026 37.1814 60.0005 37.1814C59.4023 37.1814 58.9183 37.363 58.5487 37.7262C58.1829 38.0858 58 38.5629 58 39.1575V43.5584C58 44.1495 58.1829 44.6266 58.5487 44.9898C58.9183 45.353 59.4023 45.5346 60.0005 45.5346Z" fill="black"/>
<path d="M63.9788 45.3637H64.6075V37.3523H63.9788V45.3637Z" fill="black"/>
<path d="M68.438 45.4918C69.0096 45.4918 69.4745 45.3209 69.8327 44.9791C70.1909 44.6373 70.37 44.1887 70.37 43.6332V41.3153C70.37 40.7634 70.1909 40.3183 69.8327 39.98C69.4745 39.6382 69.0096 39.4673 68.438 39.4673C68.057 39.4673 67.7198 39.5456 67.4263 39.7023C67.1329 39.8554 66.9024 40.0708 66.7347 40.3486C66.5671 40.6263 66.4832 40.9485 66.4832 41.3153V43.6332C66.4832 44.0035 66.5671 44.3293 66.7347 44.6106C66.9024 44.8883 67.1329 45.1055 67.4263 45.2622C67.7198 45.4153 68.057 45.4918 68.438 45.4918ZM68.438 44.9043C68.0379 44.9043 67.7159 44.7868 67.4721 44.5518C67.232 44.3168 67.112 44.0106 67.112 43.6332V41.3153C67.112 40.9343 67.232 40.6298 67.4721 40.402C67.7159 40.1705 68.0379 40.0548 68.438 40.0548C68.8382 40.0548 69.1544 40.1705 69.3869 40.402C69.6231 40.6298 69.7413 40.9343 69.7413 41.3153V43.6332C69.7413 44.0106 69.6231 44.3168 69.3869 44.5518C69.1544 44.7868 68.8382 44.9043 68.438 44.9043Z" fill="black"/>
<path d="M74.2109 45.4918C74.5843 45.4918 74.9139 45.4153 75.1997 45.2622C75.4855 45.1055 75.7103 44.8883 75.8742 44.6106C76.038 44.3293 76.12 44.0035 76.12 43.6332V41.3153C76.12 40.9485 76.038 40.6263 75.8742 40.3486C75.7103 40.0708 75.4855 39.8554 75.1997 39.7023C74.9139 39.5456 74.5843 39.4673 74.2109 39.4673C73.9175 39.4673 73.6602 39.5171 73.4392 39.6168C73.2182 39.7165 73.0334 39.8554 72.8848 40.0334V37.3523H72.2561V45.3637H72.8848V44.9257C73.0334 45.1037 73.2182 45.2426 73.4392 45.3423C73.6602 45.442 73.9175 45.4918 74.2109 45.4918ZM74.1709 44.9043C73.7669 44.9043 73.4507 44.7886 73.222 44.5572C72.9972 44.3257 72.8848 44.0213 72.8848 43.6439V41.3153C72.8848 40.9343 72.9972 40.6298 73.222 40.402C73.4507 40.1705 73.7688 40.0548 74.1766 40.0548C74.5843 40.0548 74.9044 40.1705 75.1368 40.402C75.3731 40.6298 75.4912 40.9343 75.4912 41.3153V43.6332C75.4912 44.0106 75.3731 44.3168 75.1368 44.5518C74.9044 44.7868 74.5824 44.9043 74.1709 44.9043Z" fill="black"/>
<path d="M79.477 45.4918C79.8199 45.4918 80.119 45.4384 80.3744 45.3316C80.6297 45.2248 80.8373 45.0735 80.9974 44.8776V45.3637H81.6261V41.3153C81.6261 40.9485 81.5423 40.6263 81.3746 40.3486C81.207 40.0708 80.9764 39.8554 80.683 39.7023C80.3896 39.5456 80.0524 39.4673 79.6713 39.4673C79.0997 39.4673 78.6348 39.6382 78.2766 39.98C77.9184 40.3183 77.7393 40.7634 77.7393 41.3153V41.4221H78.3681V41.3153C78.3681 40.9343 78.4843 40.6298 78.7168 40.402C78.953 40.1705 79.2712 40.0548 79.6713 40.0548C80.0714 40.0548 80.3915 40.1705 80.6316 40.402C80.8754 40.6298 80.9974 40.9343 80.9974 41.3153V41.4648C80.9974 41.6606 80.9307 41.812 80.7973 41.9188C80.6678 42.022 80.4944 42.1021 80.2772 42.1591C80.0638 42.2125 79.8294 42.2624 79.5741 42.3087C79.3226 42.3549 79.073 42.419 78.8254 42.5009C78.6234 42.5686 78.4291 42.6594 78.2423 42.7733C78.0594 42.8873 77.9089 43.0386 77.7908 43.2273C77.6727 43.4124 77.6136 43.6474 77.6136 43.9323C77.6136 44.3845 77.7775 44.7584 78.1052 45.0539C78.4329 45.3459 78.8901 45.4918 79.477 45.4918ZM79.5513 44.915C79.1359 44.915 78.8139 44.8224 78.5853 44.6373C78.3567 44.4521 78.2423 44.21 78.2423 43.9109C78.2423 43.6332 78.3281 43.4231 78.4996 43.2807C78.6748 43.1347 78.8901 43.0243 79.1454 42.9496C79.4389 42.8641 79.7513 42.7982 80.0828 42.752C80.4182 42.7021 80.723 42.6006 80.9974 42.4475V43.5371C80.9974 43.9715 80.8716 44.3097 80.6201 44.5518C80.3724 44.794 80.0162 44.915 79.5513 44.915Z" fill="black"/>
<path d="M83.5922 45.3637H84.2209V37.3523H83.5922V45.3637Z" fill="black"/>
<path d="M89.1727 45.3637H89.8014V42.0523H92.2935V41.4648H89.8014V37.9398H92.6022V37.3523H89.1727V45.3637Z" fill="black"/>
<path d="M94.1438 38.8798H94.7725V37.6728H94.1438V38.8798ZM94.1438 45.3637H94.7725V39.5955H94.1438V45.3637Z" fill="black"/>
<path d="M96.8311 45.3637H97.4598V41.3153C97.4598 40.9343 97.5761 40.6298 97.8085 40.402C98.041 40.1705 98.3477 40.0548 98.7288 40.0548C99.1022 40.0548 99.4032 40.1705 99.6319 40.402C99.8605 40.6298 99.9748 40.9343 99.9748 41.3153V45.3637H100.604V41.3153C100.604 40.7527 100.436 40.304 100.101 39.9693C99.769 39.6347 99.3365 39.4673 98.8031 39.4673C98.2239 39.4673 97.7761 39.6649 97.4598 40.0601V39.5955H96.8311V45.3637Z" fill="black"/>
<path d="M104.052 45.4918C104.395 45.4918 104.694 45.4384 104.949 45.3316C105.205 45.2248 105.412 45.0735 105.572 44.8776V45.3637H106.201V41.3153C106.201 40.9485 106.117 40.6263 105.95 40.3486C105.782 40.0708 105.551 39.8554 105.258 39.7023C104.965 39.5456 104.627 39.4673 104.246 39.4673C103.675 39.4673 103.21 39.6382 102.852 39.98C102.493 40.3183 102.314 40.7634 102.314 41.3153V41.4221H102.943V41.3153C102.943 40.9343 103.059 40.6298 103.292 40.402C103.528 40.1705 103.846 40.0548 104.246 40.0548C104.646 40.0548 104.967 40.1705 105.207 40.402C105.45 40.6298 105.572 40.9343 105.572 41.3153V41.4648C105.572 41.6606 105.506 41.812 105.372 41.9188C105.243 42.022 105.069 42.1021 104.852 42.1591C104.639 42.2125 104.404 42.2624 104.149 42.3087C103.898 42.3549 103.648 42.419 103.4 42.5009C103.198 42.5686 103.004 42.6594 102.817 42.7733C102.634 42.8873 102.484 43.0386 102.366 43.2273C102.248 43.4124 102.189 43.6474 102.189 43.9323C102.189 44.3845 102.352 44.7584 102.68 45.0539C103.008 45.3459 103.465 45.4918 104.052 45.4918ZM104.126 44.915C103.711 44.915 103.389 44.8224 103.16 44.6373C102.932 44.4521 102.817 44.21 102.817 43.9109C102.817 43.6332 102.903 43.4231 103.075 43.2807C103.25 43.1347 103.465 43.0243 103.72 42.9496C104.014 42.8641 104.326 42.7982 104.658 42.752C104.993 42.7021 105.298 42.6006 105.572 42.4475V43.5371C105.572 43.9715 105.447 44.3097 105.195 44.5518C104.947 44.794 104.591 44.915 104.126 44.915Z" fill="black"/>
<path d="M109.939 45.4918C110.511 45.4918 110.976 45.3209 111.334 44.9791C111.692 44.6373 111.871 44.1887 111.871 43.6332V43.5264H111.242V43.6332C111.242 44.0106 111.124 44.3168 110.888 44.5518C110.656 44.7868 110.339 44.9043 109.939 44.9043C109.539 44.9043 109.217 44.7868 108.973 44.5518C108.733 44.3168 108.613 44.0106 108.613 43.6332V41.3153C108.613 40.9343 108.733 40.6298 108.973 40.402C109.217 40.1705 109.539 40.0548 109.939 40.0548C110.339 40.0548 110.656 40.1705 110.888 40.402C111.124 40.6298 111.242 40.9343 111.242 41.3153V41.4221H111.871V41.3153C111.871 40.7634 111.692 40.3183 111.334 39.98C110.976 39.6382 110.511 39.4673 109.939 39.4673C109.558 39.4673 109.221 39.5456 108.927 39.7023C108.634 39.8554 108.403 40.0708 108.236 40.3486C108.068 40.6263 107.984 40.9485 107.984 41.3153V43.6332C107.984 44.0035 108.068 44.3293 108.236 44.6106C108.403 44.8883 108.634 45.1055 108.927 45.2622C109.221 45.4153 109.558 45.4918 109.939 45.4918Z" fill="black"/>
<path d="M113.545 38.8798H114.174V37.6728H113.545V38.8798ZM113.545 45.3637H114.174V39.5955H113.545V45.3637Z" fill="black"/>
<path d="M117.707 45.4918C118.05 45.4918 118.349 45.4384 118.604 45.3316C118.86 45.2248 119.067 45.0735 119.228 44.8776V45.3637H119.856V41.3153C119.856 40.9485 119.772 40.6263 119.605 40.3486C119.437 40.0708 119.207 39.8554 118.913 39.7023C118.62 39.5456 118.282 39.4673 117.901 39.4673C117.33 39.4673 116.865 39.6382 116.507 39.98C116.149 40.3183 115.969 40.7634 115.969 41.3153V41.4221H116.598V41.3153C116.598 40.9343 116.714 40.6298 116.947 40.402C117.183 40.1705 117.501 40.0548 117.901 40.0548C118.302 40.0548 118.622 40.1705 118.862 40.402C119.106 40.6298 119.228 40.9343 119.228 41.3153V41.4648C119.228 41.6606 119.161 41.812 119.027 41.9188C118.898 42.022 118.725 42.1021 118.507 42.1591C118.294 42.2125 118.06 42.2624 117.804 42.3087C117.553 42.3549 117.303 42.419 117.055 42.5009C116.854 42.5686 116.659 42.6594 116.472 42.7733C116.29 42.8873 116.139 43.0386 116.021 43.2273C115.903 43.4124 115.844 43.6474 115.844 43.9323C115.844 44.3845 116.008 44.7584 116.335 45.0539C116.663 45.3459 117.12 45.4918 117.707 45.4918ZM117.781 44.915C117.366 44.915 117.044 44.8224 116.815 44.6373C116.587 44.4521 116.472 44.21 116.472 43.9109C116.472 43.6332 116.558 43.4231 116.73 43.2807C116.905 43.1347 117.12 43.0243 117.376 42.9496C117.669 42.8641 117.981 42.7982 118.313 42.752C118.648 42.7021 118.953 42.6006 119.228 42.4475V43.5371C119.228 43.9715 119.102 44.3097 118.85 44.5518C118.603 44.794 118.246 44.915 117.781 44.915Z" fill="black"/>
<path d="M121.822 45.3637H122.451V37.3523H121.822V45.3637Z" fill="black"/>
<path d="M129.049 45.5346C129.651 45.5346 130.135 45.353 130.501 44.9898C130.867 44.6266 131.049 44.1495 131.049 43.5584V43.035C131.049 42.6968 131.036 42.4333 131.009 42.2446C130.987 42.0523 130.916 41.8974 130.798 41.7799C130.68 41.6624 130.484 41.552 130.209 41.4488C129.935 41.3455 129.548 41.2156 129.049 41.0589C128.706 40.9521 128.439 40.8613 128.249 40.7865C128.062 40.7117 127.929 40.6334 127.849 40.5515C127.769 40.4661 127.719 40.3557 127.7 40.2204C127.685 40.0851 127.677 39.9017 127.677 39.6703V39.1575C127.677 38.7409 127.803 38.4062 128.054 38.1534C128.306 37.8971 128.637 37.7689 129.049 37.7689C129.46 37.7689 129.792 37.8971 130.044 38.1534C130.295 38.4062 130.421 38.7409 130.421 39.1575V39.3712H131.049V39.1575C131.049 38.5629 130.867 38.0858 130.501 37.7262C130.135 37.363 129.651 37.1814 129.049 37.1814C128.451 37.1814 127.967 37.363 127.597 37.7262C127.231 38.0858 127.048 38.5629 127.048 39.1575V39.6703C127.048 40.005 127.06 40.2684 127.083 40.4607C127.109 40.653 127.182 40.8079 127.3 40.9254C127.418 41.0429 127.614 41.1532 127.889 41.2565C128.163 41.3598 128.55 41.4897 129.049 41.6464C129.392 41.7532 129.657 41.844 129.843 41.9188C130.034 41.9935 130.169 42.0737 130.249 42.1591C130.329 42.241 130.377 42.3496 130.392 42.4849C130.411 42.6202 130.421 42.8036 130.421 43.035V43.5584C130.421 43.975 130.295 44.3115 130.044 44.5679C129.792 44.8207 129.46 44.9471 129.049 44.9471C128.637 44.9471 128.306 44.8207 128.054 44.5679C127.803 44.3115 127.677 43.975 127.677 43.5584V43.3448H127.048V43.5584C127.048 44.1495 127.231 44.6266 127.597 44.9898C127.967 45.353 128.451 45.5346 129.049 45.5346Z" fill="black"/>
<path d="M134.726 45.4918C135.298 45.4918 135.763 45.3209 136.121 44.9791C136.479 44.6373 136.658 44.1887 136.658 43.6332V41.3153C136.658 40.7634 136.479 40.3183 136.121 39.98C135.763 39.6382 135.298 39.4673 134.726 39.4673C134.345 39.4673 134.008 39.5456 133.715 39.7023C133.421 39.8554 133.191 40.0708 133.023 40.3486C132.855 40.6263 132.771 40.9485 132.771 41.3153V43.6332C132.771 44.0035 132.855 44.3293 133.023 44.6106C133.191 44.8883 133.421 45.1055 133.715 45.2622C134.008 45.4153 134.345 45.4918 134.726 45.4918ZM134.726 44.9043C134.326 44.9043 134.004 44.7868 133.76 44.5518C133.52 44.3168 133.4 44.0106 133.4 43.6332V41.3153C133.4 40.9343 133.52 40.6298 133.76 40.402C134.004 40.1705 134.326 40.0548 134.726 40.0548C135.126 40.0548 135.443 40.1705 135.675 40.402C135.911 40.6298 136.03 40.9343 136.03 41.3153V43.6332C136.03 44.0106 135.911 44.3168 135.675 44.5518C135.443 44.7868 135.126 44.9043 134.726 44.9043Z" fill="black"/>
<path d="M138.544 45.3637H139.173V37.3523H138.544V45.3637Z" fill="black"/>
<path d="M142.952 45.4918C143.531 45.4918 143.979 45.2942 144.295 44.899V45.3637H144.924V39.5955H144.295V43.6439C144.295 44.0213 144.179 44.3257 143.947 44.5572C143.718 44.7886 143.411 44.9043 143.026 44.9043C142.657 44.9043 142.356 44.7886 142.123 44.5572C141.895 44.3257 141.78 44.0213 141.78 43.6439V39.5955H141.152V43.6439C141.152 44.2065 141.319 44.6551 141.655 44.9898C141.99 45.3245 142.422 45.4918 142.952 45.4918Z" fill="black"/>
<path d="M149.299 45.4277H149.641V44.8402H149.299C148.906 44.8402 148.588 44.7156 148.344 44.4664C148.104 44.2136 147.984 43.8789 147.984 43.4623V40.1509H149.641V39.5848H147.984V38.1H147.355V39.5848H146.212V40.1509H147.355V43.4623C147.355 44.0534 147.532 44.5287 147.887 44.8883C148.245 45.2479 148.716 45.4277 149.299 45.4277Z" fill="black"/>
<path d="M151.083 38.8798H151.712V37.6728H151.083V38.8798ZM151.083 45.3637H151.712V39.5955H151.083V45.3637Z" fill="black"/>
<path d="M155.542 45.4918C156.114 45.4918 156.579 45.3209 156.937 44.9791C157.295 44.6373 157.474 44.1887 157.474 43.6332V41.3153C157.474 40.7634 157.295 40.3183 156.937 39.98C156.579 39.6382 156.114 39.4673 155.542 39.4673C155.161 39.4673 154.824 39.5456 154.531 39.7023C154.237 39.8554 154.007 40.0708 153.839 40.3486C153.671 40.6263 153.587 40.9485 153.587 41.3153V43.6332C153.587 44.0035 153.671 44.3293 153.839 44.6106C154.007 44.8883 154.237 45.1055 154.531 45.2622C154.824 45.4153 155.161 45.4918 155.542 45.4918ZM155.542 44.9043C155.142 44.9043 154.82 44.7868 154.576 44.5518C154.336 44.3168 154.216 44.0106 154.216 43.6332V41.3153C154.216 40.9343 154.336 40.6298 154.576 40.402C154.82 40.1705 155.142 40.0548 155.542 40.0548C155.942 40.0548 156.259 40.1705 156.491 40.402C156.727 40.6298 156.846 40.9343 156.846 41.3153V43.6332C156.846 44.0106 156.727 44.3168 156.491 44.5518C156.259 44.7868 155.942 44.9043 155.542 44.9043Z" fill="black"/>
<path d="M159.36 45.3637H159.989V41.3153C159.989 40.9343 160.105 40.6298 160.338 40.402C160.57 40.1705 160.877 40.0548 161.258 40.0548C161.631 40.0548 161.932 40.1705 162.161 40.402C162.39 40.6298 162.504 40.9343 162.504 41.3153V45.3637H163.133V41.3153C163.133 40.7527 162.965 40.304 162.63 39.9693C162.298 39.6347 161.866 39.4673 161.332 39.4673C160.753 39.4673 160.305 39.6649 159.989 40.0601V39.5955H159.36V45.3637Z" fill="black"/>
<path d="M166.73 45.4918C167.286 45.4918 167.732 45.3423 168.067 45.0432C168.403 44.7406 168.57 44.3079 168.57 43.7454C168.57 43.3573 168.49 43.0653 168.33 42.8695C168.17 42.6701 167.949 42.5241 167.667 42.4315C167.385 42.3389 167.061 42.2588 166.696 42.1912C166.44 42.1413 166.217 42.0879 166.027 42.0309C165.836 41.974 165.688 41.8832 165.581 41.7585C165.478 41.6304 165.427 41.4434 165.427 41.1978C165.427 40.8275 165.541 40.5444 165.77 40.3486C166.002 40.1527 166.305 40.0548 166.678 40.0548C167.063 40.0548 167.37 40.1509 167.599 40.3432C167.827 40.5355 167.942 40.7954 167.942 41.123V41.3259H168.57V41.123C168.57 40.6245 168.399 40.2239 168.056 39.9213C167.713 39.6186 167.252 39.4673 166.673 39.4673C166.113 39.4673 165.659 39.6186 165.312 39.9213C164.969 40.2204 164.798 40.6565 164.798 41.2298C164.798 41.6179 164.878 41.9099 165.038 42.1057C165.202 42.298 165.427 42.4386 165.712 42.5276C165.998 42.6131 166.326 42.6932 166.696 42.768C166.947 42.8143 167.166 42.8677 167.353 42.9282C167.54 42.9887 167.684 43.0831 167.787 43.2113C167.89 43.3359 167.942 43.5228 167.942 43.7721C167.942 44.1388 167.831 44.4201 167.61 44.6159C167.389 44.8082 167.094 44.9043 166.724 44.9043C166.339 44.9043 166.027 44.8064 165.787 44.6106C165.547 44.4148 165.427 44.1566 165.427 43.8362V43.6118H164.798V43.8255C164.798 44.3275 164.975 44.7316 165.329 45.0379C165.688 45.3405 166.154 45.4918 166.73 45.4918Z" fill="black"/>
<circle cx="23" cy="23" r="23" fill="white"/>
<circle cx="23" cy="23" r="21" fill="black"/>
<ellipse cx="23" cy="23.5" rx="19" ry="18.5" fill="#E17200"/>
<ellipse cx="23" cy="23" rx="17" ry="16" fill="#FFA400"/>
<ellipse cx="23" cy="23.5" rx="14" ry="13.5" fill="black"/>
<circle cx="18.5" cy="14.5" r="4.5" fill="white"/>
</svg>
